<?xml version="1.0" encoding="utf-8"?>
<!-- Generator: Adobe Illustrator 16.0.3, SVG Export Plug-In . SVG Version: 6.00 Build 0)  -->
<!DOCTYPE svg PUBLIC "-//W3C//DTD SVG 1.1//EN" "http://www.w3.org/Graphics/SVG/1.1/DTD/svg11.dtd">
<svg version="1.1" id="Calque_1" xmlns="http://www.w3.org/2000/svg" xmlns:xlink="http://www.w3.org/1999/xlink" x="0px" y="0px"
	 width="600px" height="300px" viewBox="0 0 600 300" enable-background="new 0 0 600 300" xml:space="preserve">
<text transform="matrix(1 0 0 1 9.8252 200.9463)" display="none"><tspan x="0" y="0" display="inline" fill="#FFFFFF" font-family="'Quicksand-Light'" font-size="181">resu</tspan><tspan x="321.271" y="0" display="inline" fill="#FFFFFF" font-family="'Quicksand-Regular'" font-size="128">ME</tspan></text>
<g>
	<path id="r_1_" fill="#FFFFFF" d="M72.089,116.962c-17.86,0-31.494,13.394-40.906,40.182v41.449c0,1.569-0.724,2.353-2.172,2.353
		c-1.448,0-2.172-0.783-2.172-2.353v-41.449c-0.122-0.24-0.122-0.603,0-1.086v-41.449c0-0.603,0.209-1.146,0.633-1.629
		c0.421-0.481,0.933-0.724,1.539-0.724c1.448,0,2.172,0.786,2.172,2.353v30.046c1.688-3.982,3.558-7.48,5.611-10.498
		c9.774-14.599,21.539-21.901,35.295-21.901c1.566,0,2.353,0.786,2.353,2.353C74.442,116.179,73.656,116.962,72.089,116.962z"/>
	<path id="e_2_" fill="#FFFFFF" d="M185.394,153.162v0.725c-0.243,1.447-0.967,2.172-2.172,2.172h-78.916v0.543
		c0,10.859,3.77,20.182,11.313,27.965c7.54,7.782,16.621,11.736,27.241,11.855c6.635,0,12.76-1.629,18.371-4.888
		c5.611-3.258,10.105-7.661,13.485-13.213c0.843-1.204,1.9-1.386,3.167-0.543c1.267,0.846,1.476,1.872,0.633,3.077
		c-3.863,6.035-8.959,10.891-15.294,14.57c-6.335,3.682-13.123,5.521-20.362,5.521c-11.827-0.118-21.901-4.493-30.227-13.122
		c-8.326-8.626-12.611-19.033-12.851-31.223c0.24-12.308,4.525-22.775,12.851-31.404c8.326-8.626,18.25-12.941,29.774-12.941
		c11.522,0,21.358,3.922,29.503,11.765C180.055,131.867,184.549,141.578,185.394,153.162z M168.199,126.917
		c-7.24-6.635-15.719-9.955-25.431-9.955c-9.714,0-18.222,3.32-25.521,9.955c-7.302,6.637-11.556,14.904-12.76,24.797h76.382
		C179.662,141.821,175.439,133.555,168.199,126.917z"/>
	<path id="s_1_" fill="#FFFFFF" d="M244.942,200.946c-5.552,0-11.162-1.086-16.833-3.258c-7.602-3.015-13.094-6.214-16.471-9.593
		c-0.724-0.725-0.936-1.508-0.633-2.354c0.3-0.843,0.814-1.386,1.539-1.629c0.724-0.24,1.448-0.028,2.172,0.633
		c0.724,0.666,2.081,1.721,4.072,3.168c1.991,1.448,5.58,3.23,10.77,5.34c5.187,2.112,10.317,3.168,15.385,3.168
		c8.083,0,14.992-2.051,20.725-6.154c5.73-4.102,8.598-9.051,8.598-14.842c0-4.585-1.389-8.084-4.163-10.498
		c-3.018-2.653-6.095-4.525-9.23-5.611c-4.226-1.326-8.569-2.503-13.032-3.529c-4.466-1.023-7.633-1.779-9.503-2.263
		c-1.872-0.481-4.465-1.417-7.783-2.806c-3.319-1.386-5.764-2.806-7.33-4.253c-4.226-3.86-6.335-8.716-6.335-14.57
		c0-5.852,2.743-10.889,8.235-15.114c5.489-4.222,11.494-6.335,18.01-6.335s12.064,0.967,16.652,2.896
		c6.516,2.656,10.679,5.311,12.488,7.964c0.603,0.605,0.725,1.33,0.362,2.172c-0.362,0.845-0.937,1.357-1.72,1.538
		c-0.786,0.181-1.479-0.028-2.081-0.633c-6.154-6.154-14.118-9.231-23.893-9.231c-6.396,0-11.887,1.629-16.471,4.887
		c-4.587,3.258-6.878,7.24-6.878,11.946c0,6.154,2.774,10.56,8.326,13.213c4.344,2.172,9.44,3.923,15.294,5.249
		c5.852,1.329,9.834,2.293,11.946,2.896c2.109,0.605,4.766,1.538,7.964,2.805c3.196,1.268,5.64,2.688,7.331,4.254
		c4.344,3.982,6.516,9.262,6.516,15.838c0,6.578-3.289,12.339-9.864,17.285C262.528,198.475,254.473,200.946,244.942,200.946z"/>
	<path id="u_1_" fill="#FFFFFF" d="M303.584,114.609c0-1.567,0.783-2.353,2.354-2.353c0.602,0,1.113,0.243,1.537,0.724
		c0.422,0.483,0.635,1.026,0.635,1.629v50.499c0,8.688,3.014,16.081,9.049,22.173c6.033,6.094,13.332,9.141,21.902,9.141
		c8.566,0,15.896-3.047,21.99-9.141c6.092-6.092,9.141-13.484,9.141-22.173v-50.499c0-0.603,0.24-1.146,0.725-1.629
		c0.48-0.481,1.023-0.724,1.629-0.724c1.566,0,2.354,0.786,2.354,2.353v50.499c0,9.896-3.502,18.343-10.498,25.34
		c-7,6.999-15.416,10.498-25.25,10.498c-9.836,0-18.221-3.499-25.158-10.498c-6.941-6.997-10.408-15.444-10.408-25.34V114.609z"/>
	<path id="m_1_" fill="#FFFFFF" d="M481.943,197.875v-73.729l-28.672,39.808c-0.598,0.94-1.451,1.408-2.559,1.408h-0.256
		c-1.197,0-2.094-0.468-2.689-1.408l-28.672-39.68v73.601c0,0.854-0.299,1.579-0.895,2.176c-0.6,0.598-1.324,0.896-2.178,0.896
		s-1.6-0.298-2.238-0.896c-0.641-0.597-0.961-1.322-0.961-2.176V114.93c0-1.024,0.426-1.834,1.279-2.432l0.256-0.256
		c1.707-1.108,3.156-0.852,4.354,0.768l31.871,44.16l31.744-44.16c0.426-0.682,1.088-1.088,1.984-1.216s1.684,0.022,2.367,0.448
		c0.939,0.94,1.408,1.836,1.408,2.688v82.945c0,0.854-0.299,1.579-0.896,2.176c-0.598,0.598-1.322,0.896-2.176,0.896
		s-1.58-0.298-2.176-0.896C482.242,199.454,481.943,198.729,481.943,197.875z"/>
	<path id="e_3_" fill="#FFFFFF" d="M520.855,197.875v-83.457c0-0.852,0.299-1.578,0.896-2.176c0.596-0.596,1.322-0.896,2.176-0.896
		h46.08c0.852,0,1.578,0.3,2.176,0.896c0.596,0.598,0.896,1.344,0.896,2.24s-0.301,1.644-0.896,2.24
		c-0.598,0.598-1.324,0.896-2.176,0.896h-42.881v35.456h37.504c0.854,0,1.578,0.32,2.176,0.96s0.896,1.388,0.896,2.24
		c0,0.854-0.299,1.58-0.896,2.176c-0.598,0.599-1.322,0.896-2.176,0.896h-37.504v35.328h42.881c0.852,0,1.578,0.301,2.176,0.896
		c0.596,0.598,0.896,1.344,0.896,2.24c0,0.896-0.301,1.644-0.896,2.24c-0.598,0.598-1.324,0.896-2.176,0.896h-46.336
		c-0.768-0.084-1.43-0.403-1.984-0.96C521.131,199.432,520.855,198.729,520.855,197.875z"/>
</g>
<g display="none">
	<path id="r" display="inline" d="M72.089,116.962c-17.86,0-31.494,13.394-40.906,40.182v41.449c0,1.569-0.724,2.353-2.172,2.353
		c-1.448,0-2.172-0.783-2.172-2.353v-41.449c-0.122-0.24-0.122-0.603,0-1.086v-41.449c0-0.603,0.209-1.146,0.633-1.629
		c0.421-0.481,0.933-0.724,1.539-0.724c1.448,0,2.172,0.786,2.172,2.353v30.046c1.688-3.982,3.558-7.48,5.611-10.498
		c9.774-14.599,21.539-21.901,35.295-21.901c1.566,0,2.353,0.786,2.353,2.353C74.442,116.179,73.656,116.962,72.089,116.962z"/>
	<path id="e" display="inline" d="M185.394,153.162v0.725c-0.243,1.447-0.967,2.172-2.172,2.172h-78.916v0.543
		c0,10.859,3.77,20.182,11.313,27.965c7.54,7.782,16.621,11.736,27.241,11.855c6.635,0,12.76-1.629,18.371-4.888
		c5.611-3.258,10.105-7.661,13.485-13.213c0.843-1.204,1.9-1.386,3.167-0.543c1.267,0.846,1.476,1.872,0.633,3.077
		c-3.863,6.035-8.959,10.891-15.294,14.57c-6.335,3.682-13.123,5.521-20.362,5.521c-11.827-0.118-21.901-4.493-30.227-13.122
		c-8.326-8.626-12.611-19.033-12.851-31.223c0.24-12.308,4.525-22.775,12.851-31.404c8.326-8.626,18.25-12.941,29.774-12.941
		c11.522,0,21.358,3.922,29.503,11.765C180.055,131.867,184.549,141.578,185.394,153.162z M168.199,126.917
		c-7.24-6.635-15.719-9.955-25.431-9.955c-9.714,0-18.222,3.32-25.521,9.955c-7.302,6.637-11.556,14.904-12.76,24.797h76.382
		C179.662,141.821,175.439,133.555,168.199,126.917z"/>
	<path id="s" display="inline" d="M244.942,200.946c-5.552,0-11.162-1.086-16.833-3.258c-7.602-3.015-13.094-6.214-16.471-9.593
		c-0.724-0.725-0.936-1.508-0.633-2.354c0.3-0.843,0.814-1.386,1.539-1.629c0.724-0.24,1.448-0.028,2.172,0.633
		c0.724,0.666,2.081,1.721,4.072,3.168c1.991,1.448,5.58,3.23,10.77,5.34c5.187,2.112,10.317,3.168,15.385,3.168
		c8.083,0,14.992-2.051,20.725-6.154c5.73-4.102,8.598-9.051,8.598-14.842c0-4.585-1.389-8.084-4.163-10.498
		c-3.018-2.653-6.095-4.525-9.23-5.611c-4.226-1.326-8.569-2.503-13.032-3.529c-4.466-1.023-7.633-1.779-9.503-2.263
		c-1.872-0.481-4.465-1.417-7.783-2.806c-3.319-1.386-5.764-2.806-7.33-4.253c-4.226-3.86-6.335-8.716-6.335-14.57
		c0-5.852,2.743-10.889,8.235-15.114c5.489-4.222,11.494-6.335,18.01-6.335s12.064,0.967,16.652,2.896
		c6.516,2.656,10.679,5.311,12.488,7.964c0.603,0.605,0.725,1.33,0.362,2.172c-0.362,0.845-0.937,1.357-1.72,1.538
		c-0.786,0.181-1.479-0.028-2.081-0.633c-6.154-6.154-14.118-9.231-23.893-9.231c-6.396,0-11.887,1.629-16.471,4.887
		c-4.587,3.258-6.878,7.24-6.878,11.946c0,6.154,2.774,10.56,8.326,13.213c4.344,2.172,9.44,3.923,15.294,5.249
		c5.852,1.329,9.834,2.293,11.946,2.896c2.109,0.605,4.766,1.538,7.964,2.805c3.196,1.268,5.64,2.688,7.331,4.254
		c4.344,3.982,6.516,9.262,6.516,15.838c0,6.578-3.289,12.339-9.864,17.285C262.528,198.475,254.473,200.946,244.942,200.946z"/>
	<path id="u" display="inline" d="M303.584,114.609c0-1.567,0.783-2.353,2.354-2.353c0.602,0,1.113,0.243,1.537,0.724
		c0.422,0.483,0.635,1.026,0.635,1.629v50.499c0,8.688,3.014,16.081,9.049,22.173c6.033,6.094,13.332,9.141,21.902,9.141
		c8.566,0,15.896-3.047,21.99-9.141c6.092-6.092,9.141-13.484,9.141-22.173v-50.499c0-0.603,0.24-1.146,0.725-1.629
		c0.48-0.481,1.023-0.724,1.629-0.724c1.566,0,2.354,0.786,2.354,2.353v50.499c0,9.896-3.502,18.343-10.498,25.34
		c-7,6.999-15.416,10.498-25.25,10.498c-9.836,0-18.221-3.499-25.158-10.498c-6.941-6.997-10.408-15.444-10.408-25.34V114.609z"/>
	<path id="m" display="inline" d="M481.943,197.875v-73.729l-28.672,39.808c-0.598,0.94-1.451,1.408-2.559,1.408h-0.256
		c-1.197,0-2.094-0.468-2.689-1.408l-28.672-39.68v73.601c0,0.854-0.299,1.579-0.895,2.176c-0.6,0.598-1.324,0.896-2.178,0.896
		s-1.6-0.298-2.238-0.896c-0.641-0.597-0.961-1.322-0.961-2.176V114.93c0-1.024,0.426-1.834,1.279-2.432l0.256-0.256
		c1.707-1.108,3.156-0.852,4.354,0.768l31.871,44.16l31.744-44.16c0.426-0.682,1.088-1.088,1.984-1.216s1.684,0.022,2.367,0.448
		c0.939,0.94,1.408,1.836,1.408,2.688v82.945c0,0.854-0.299,1.579-0.896,2.176c-0.598,0.598-1.322,0.896-2.176,0.896
		s-1.58-0.298-2.176-0.896C482.242,199.454,481.943,198.729,481.943,197.875z"/>
	<path id="e_1_" display="inline" d="M520.855,197.875v-83.457c0-0.852,0.299-1.578,0.896-2.176
		c0.596-0.596,1.322-0.896,2.176-0.896h46.08c0.852,0,1.578,0.3,2.176,0.896c0.596,0.598,0.896,1.344,0.896,2.24
		s-0.301,1.644-0.896,2.24c-0.598,0.598-1.324,0.896-2.176,0.896h-42.881v35.456h37.504c0.854,0,1.578,0.32,2.176,0.96
		s0.896,1.388,0.896,2.24c0,0.854-0.299,1.58-0.896,2.176c-0.598,0.599-1.322,0.896-2.176,0.896h-37.504v35.328h42.881
		c0.852,0,1.578,0.301,2.176,0.896c0.596,0.598,0.896,1.344,0.896,2.24c0,0.896-0.301,1.644-0.896,2.24
		c-0.598,0.598-1.324,0.896-2.176,0.896h-46.336c-0.768-0.084-1.43-0.403-1.984-0.96
		C521.131,199.432,520.855,198.729,520.855,197.875z"/>
</g>
</svg>
